<svg width="2858" height="114" viewBox="0 0 2858 114" fill="none" xmlns="http://www.w3.org/2000/svg">
<path d="M62.5979 43.0641C63.4981 43.0641 64.2442 43.3836 64.8364 44.0227C65.4286 44.6617 65.7247 45.4309 65.7247 46.3303C65.7247 47.206 65.4286 47.9516 64.8364 48.567C64.2442 49.1823 63.4981 49.49 62.5979 49.49H58.3342C55.4444 49.49 52.969 48.4604 50.9082 46.4013C48.8711 44.3659 47.8526 41.8925 47.8526 38.9814V17.8931H43.6599H39.6794H0C0 16.544 0 11.6447 0 11.6447H43.6599H47.8526V4.26026C47.8526 2.39048 48.7053 1.08873 50.4108 0.355022C50.9082 0.118341 51.4531 0 52.0452 0C53.2059 0 54.0823 0.307685 54.6745 0.923056C55.7168 1.94078 56.2379 3.05319 56.2379 4.26026V11.6447H62.669C63.4981 11.6447 64.1376 11.8696 64.5877 12.3193C65.3457 13.0766 65.7247 13.8932 65.7247 14.7689C65.7247 15.621 65.4286 16.3547 64.8364 16.97C64.2442 17.5854 63.5218 17.8931 62.669 17.8931H56.2379V38.9104C56.2379 40.0938 56.5458 40.9695 57.1617 41.5375C58.2039 42.5553 59.2936 43.0641 60.4306 43.0641H62.5979Z" fill="url(#paint0_linear_163_11)"/>
<path d="M68.1678 14.8754C68.1678 13.4553 68.831 12.4613 70.1575 11.8932C70.5365 11.7275 70.9511 11.6447 71.4011 11.6447H79.7864C82.6763 11.6447 85.1516 12.6743 87.2124 14.7334C89.2732 16.7925 90.3036 19.2658 90.3036 22.1533V46.0463C90.3036 47.8451 89.4509 49.1113 87.7454 49.845C87.2243 50.0817 86.6558 50.2001 86.0399 50.2001C85.424 50.2001 84.8911 50.0935 84.441 49.8805C84.0146 49.6912 83.6475 49.4663 83.3395 49.206C83.079 48.9693 82.8184 48.638 82.5579 48.2119C82.2973 47.7622 82.096 47.4309 81.9538 47.2179C81.8117 47.0049 81.5867 46.8984 81.2787 46.8984C80.9708 46.8984 80.7221 47.0049 80.5326 47.2179L79.9641 47.8214C78.377 49.4072 76.5176 50.2001 74.3857 50.2001C71.8512 50.2001 69.6601 49.1587 67.8125 47.0759C65.9649 45.0167 65.0411 42.5553 65.0411 39.6914V34.7921C65.0411 31.9046 66.0715 29.4313 68.1323 27.3722C70.1694 25.3367 72.6447 24.319 75.5582 24.319H81.8828V22.2599C81.8828 21.0764 81.5867 20.1889 80.9945 19.5972C79.9522 18.5558 78.8508 18.0351 77.6901 18.0351H71.4011C70.5247 18.0351 69.8496 17.8102 69.3758 17.3606C68.5705 16.6032 68.1678 15.7748 68.1678 14.8754ZM73.4619 39.6204C73.4619 40.8275 73.758 41.715 74.3502 42.2831C75.3924 43.2771 76.3518 43.7742 77.2282 43.7742C78.1046 43.7742 78.7916 43.6913 79.289 43.5256C79.8101 43.36 80.2602 43.1233 80.6392 42.8156C81.4682 42.1529 81.8828 41.2772 81.8828 40.1884V30.6739H77.6901C76.4821 30.6739 75.5819 30.9697 74.9898 31.5614C73.9712 32.5791 73.4619 33.6797 73.4619 34.8631V39.6204Z" fill="url(#paint1_linear_163_11)"/>
<path d="M99.4621 48.6735C98.8699 49.2415 98.3133 49.632 97.7921 49.845C97.2947 50.0817 96.7499 50.2001 96.1577 50.2001C95.5892 50.2001 95.0444 50.0935 94.5233 49.8805C94.0259 49.6675 93.5876 49.3717 93.2086 48.993C92.3796 48.1646 91.965 47.1824 91.965 46.0463V15.1949C91.965 14.0352 92.273 13.1358 92.8889 12.4968C93.8837 11.4554 94.8312 10.9347 95.7313 10.9347C96.6552 10.9347 97.3302 11.0412 97.7566 11.2542C98.2067 11.4435 98.5857 11.6684 98.8936 11.9287C99.3437 12.3074 99.6516 12.6979 99.8174 13.1003C100.007 13.479 100.173 13.763 100.315 13.9523C100.457 14.1417 100.67 14.2364 100.954 14.2364C101.262 14.2364 101.511 14.1417 101.701 13.9523C101.89 13.7393 102.198 13.4198 102.624 12.9938C104.046 11.621 105.597 10.9347 107.279 10.9347C108.984 10.9347 110.406 11.2187 111.543 11.7867C112.68 12.3311 113.663 13.0885 114.492 14.0589C116.316 16.118 117.228 18.5795 117.228 21.4433V46.0463C117.228 47.8451 116.387 49.1113 114.705 49.845C114.184 50.0817 113.627 50.2001 113.035 50.2001C112.466 50.2001 111.922 50.0935 111.401 49.8805C110.879 49.6675 110.429 49.3717 110.05 48.993C109.221 48.1646 108.807 47.1824 108.807 46.0463V21.5498C108.807 20.3901 108.523 19.5025 107.954 18.8871C106.935 17.8458 105.846 17.3251 104.685 17.3251C102.79 17.3251 101.476 18.0588 100.741 19.5262C100.504 19.9996 100.386 20.5321 100.386 21.1238V46.0463C100.386 47.206 100.078 48.0818 99.4621 48.6735Z" fill="url(#paint2_linear_163_11)"/>
<path d="M76.5568 88.3674C77.8596 88.3674 78.9848 88.8408 79.9323 89.7875C80.8798 90.7343 81.3535 91.6928 81.3535 92.6632C81.3535 93.6336 81.2232 94.4028 80.9627 94.9708C80.7021 95.5389 80.3586 96.0359 79.9323 96.4619C78.9848 97.4087 77.8596 97.882 76.5568 97.882C75.254 97.882 74.1289 97.4087 73.1814 96.4619C72.2339 95.5152 71.7601 94.5685 71.7601 93.6218C71.7601 92.0123 72.2339 90.7343 73.1814 89.7875C74.1289 88.8408 75.254 88.3674 76.5568 88.3674Z" fill="url(#paint3_linear_163_11)"/>
<path d="M107.034 103.491C107.034 106.403 106.004 108.876 103.943 110.911C101.835 112.97 99.3474 114 96.4812 114H90.1922C89.2921 114 88.5222 113.692 87.8827 113.077C87.2668 112.462 86.9589 111.704 86.9589 110.805C86.9589 109.905 87.2668 109.136 87.8827 108.497C88.5222 107.882 89.2921 107.574 90.1922 107.574H94.3849C95.5692 107.574 96.4575 107.278 97.0497 106.687C98.0682 105.669 98.5775 104.58 98.5775 103.42V95.7164C98.5775 95.2667 98.4472 94.9709 98.1867 94.8288C97.9498 94.6632 97.7129 94.5803 97.4761 94.5803C97.2392 94.5803 97.026 94.6868 96.8365 94.8998L96.2325 95.4679C94.6217 97.0773 92.7741 97.882 90.6896 97.882C88.1551 97.882 86.0351 96.8406 84.3296 94.7578C82.6241 92.7224 81.7713 90.2609 81.7713 87.3734V69.8353C81.7713 66.9478 82.8017 64.4745 84.8625 62.4154C86.9233 60.3562 89.3987 59.3267 92.2885 59.3267H102.77C104.641 59.3267 105.956 60.1906 106.714 61.9183C106.927 62.439 107.034 62.9952 107.034 63.5869V103.491ZM90.1922 87.2669C90.1922 88.4503 90.4883 89.3378 91.0805 89.9295C92.1227 90.9709 93.0702 91.4916 93.923 91.4916C94.7994 91.4916 95.4863 91.4088 95.9838 91.2431C96.4812 91.0538 96.9313 90.7934 97.3339 90.4621C98.163 89.752 98.5775 88.829 98.5775 87.6929V65.7171H94.3849C93.2242 65.7171 92.3359 66.0248 91.72 66.6401C90.7015 67.6579 90.1922 68.7584 90.1922 69.9418V87.2669Z" fill="url(#paint4_linear_163_11)"/>
<path d="M117.224 86.5923C117.224 87.7994 117.52 88.687 118.112 89.255C119.155 90.2491 120.256 90.7461 121.417 90.7461H121.772C122.649 90.7461 2858 90.7461 2858 90.7461V97.172H129.321H125.366H121.772H119.321C116.431 97.172 113.955 96.1424 111.895 94.0833C109.834 92.0242 108.803 89.5509 108.803 86.6633V46.7589C108.803 45.5755 109.099 44.688 109.692 44.0963C110.71 43.0785 111.812 42.5697 112.996 42.5697C114.204 42.5697 115.104 42.8655 115.696 43.4572C116.715 44.4749 117.224 45.5755 117.224 46.7589V86.5923Z" fill="url(#paint5_linear_163_11)"/>
<defs>
<linearGradient id="paint0_linear_163_11" x1="471.5" y1="114" x2="917" y2="114" gradientUnits="userSpaceOnUse">
<stop/>
<stop offset="1" stop-opacity="0"/>
</linearGradient>
<linearGradient id="paint1_linear_163_11" x1="471.5" y1="114" x2="917" y2="114" gradientUnits="userSpaceOnUse">
<stop/>
<stop offset="1" stop-opacity="0"/>
</linearGradient>
<linearGradient id="paint2_linear_163_11" x1="471.5" y1="114" x2="917" y2="114" gradientUnits="userSpaceOnUse">
<stop/>
<stop offset="1" stop-opacity="0"/>
</linearGradient>
<linearGradient id="paint3_linear_163_11" x1="471.5" y1="114" x2="917" y2="114" gradientUnits="userSpaceOnUse">
<stop/>
<stop offset="1" stop-opacity="0"/>
</linearGradient>
<linearGradient id="paint4_linear_163_11" x1="471.5" y1="114" x2="917" y2="114" gradientUnits="userSpaceOnUse">
<stop/>
<stop offset="1" stop-opacity="0"/>
</linearGradient>
<linearGradient id="paint5_linear_163_11" x1="471.5" y1="114" x2="917" y2="114" gradientUnits="userSpaceOnUse">
<stop/>
<stop offset="1" stop-opacity="0"/>
</linearGradient>
</defs>
</svg>
